G04 #@! TF.GenerationSoftware,KiCad,Pcbnew,(2018-01-25 revision 89a5a84af)-makepkg*
G04 #@! TF.CreationDate,2018-02-28T21:11:33+00:00*
G04 #@! TF.ProjectId,WolfDrive_encoder_renishaw_adapter,576F6C6644726976655F656E636F6465,rev?*
G04 #@! TF.SameCoordinates,Original*
G04 #@! TF.FileFunction,Copper,L2,Bot,Signal*
G04 #@! TF.FilePolarity,Positive*
%FSLAX46Y46*%
G04 Gerber Fmt 4.6, Leading zero omitted, Abs format (unit mm)*
G04 Created by KiCad (PCBNEW (2018-01-25 revision 89a5a84af)-makepkg) date Wed Feb 28 21:11:33 2018*
%MOMM*%
%LPD*%
G01*
G04 APERTURE LIST*
%ADD10C,4.400000*%
%ADD11C,0.600000*%
%ADD12C,0.300000*%
%ADD13C,0.254000*%
G04 APERTURE END LIST*
D10*
X29522981Y30571942D03*
D11*
X31172981Y30571942D03*
X30689707Y29405216D03*
X29522981Y28921942D03*
X28356255Y29405216D03*
X27872981Y30571942D03*
X28356255Y31738668D03*
X29522981Y32221942D03*
X30689707Y31738668D03*
D10*
X10281681Y41237568D03*
X40853622Y11714588D03*
D11*
X41000000Y4000000D03*
X39000000Y4000000D03*
X37000000Y4000000D03*
X35000000Y4000000D03*
X25500000Y31500000D03*
X22000000Y30250000D03*
X22750000Y28750000D03*
X29000000Y14000000D03*
X23000000Y24000000D03*
X25000000Y22000000D03*
X27000000Y20000000D03*
X29000000Y18000000D03*
X25000000Y34000000D03*
X25000000Y36000000D03*
X35000000Y2000000D03*
X37000000Y2000000D03*
X39000000Y2000000D03*
X41000000Y2000000D03*
X43000000Y8000000D03*
X35000000Y14000000D03*
X39000000Y14000000D03*
X37000000Y14000000D03*
X39000000Y16000000D03*
X41000000Y16000000D03*
X39000000Y20000000D03*
X37000000Y24000000D03*
X33000000Y28000000D03*
X33000000Y20000000D03*
X31000000Y22000000D03*
X29000000Y24000000D03*
X27000000Y26000000D03*
X27000000Y32000000D03*
X27000000Y34000000D03*
X31000000Y6000000D03*
X31000000Y8000000D03*
X30000000Y11250000D03*
X29000000Y16000000D03*
X27000000Y18000000D03*
X25000000Y20000000D03*
X23000000Y22000000D03*
X19000000Y26000000D03*
X21000000Y24000000D03*
X15000000Y41000000D03*
X17000000Y41000000D03*
X17000000Y39000000D03*
X11000000Y37000000D03*
X9000000Y37000000D03*
X21000000Y38000000D03*
X21000000Y36000000D03*
X19000000Y36000000D03*
X15000000Y28000000D03*
X17000000Y28000000D03*
X19000000Y32000000D03*
X17000000Y32000000D03*
X17000000Y30000000D03*
X11000000Y30000000D03*
X11000000Y32000000D03*
X9000000Y32000000D03*
X7000000Y32000000D03*
X5000000Y32000000D03*
X3000000Y32000000D03*
X1000000Y32000000D03*
X7000000Y43000000D03*
X5000000Y43000000D03*
X3000000Y43000000D03*
X1000000Y43000000D03*
X34933350Y20000000D03*
X8950000Y33549996D03*
X35517948Y17780000D03*
X32271396Y23651904D03*
X16122156Y34450000D03*
D12*
X21383354Y33549996D02*
X9515685Y33549996D01*
X9515685Y33549996D02*
X8950000Y33549996D01*
X34933350Y20000000D02*
X21383354Y33549996D01*
X16122156Y34450000D02*
X21473300Y34450000D01*
X21473300Y34450000D02*
X32271396Y23651904D01*
D13*
G36*
X8970084Y43520653D02*
X8607066Y43278092D01*
X8241157Y42912183D01*
X7953664Y42481919D01*
X7755635Y42003836D01*
X7654681Y41496305D01*
X7654681Y40978831D01*
X7755635Y40471300D01*
X7953664Y39993217D01*
X8241157Y39562953D01*
X8607066Y39197044D01*
X9037330Y38909551D01*
X9515413Y38711522D01*
X10022944Y38610568D01*
X10540418Y38610568D01*
X11047949Y38711522D01*
X11526032Y38909551D01*
X11956296Y39197044D01*
X12322205Y39562953D01*
X12609698Y39993217D01*
X12807727Y40471300D01*
X12908681Y40978831D01*
X12908681Y41496305D01*
X12807727Y42003836D01*
X12616748Y42464898D01*
X17886534Y40742234D01*
X25459429Y36492125D01*
X29314939Y33198942D01*
X29264244Y33198942D01*
X28756713Y33097988D01*
X28278630Y32899959D01*
X27848366Y32612466D01*
X27482457Y32246557D01*
X27194964Y31816293D01*
X26996935Y31338210D01*
X26895981Y30830679D01*
X26895981Y30313205D01*
X26996935Y29805674D01*
X27041701Y29697599D01*
X21903560Y34835740D01*
X21887545Y34855659D01*
X21863283Y34876017D01*
X21861172Y34878128D01*
X21841950Y34893917D01*
X21800863Y34928393D01*
X21798190Y34929862D01*
X21795835Y34931797D01*
X21748680Y34957081D01*
X21701704Y34982906D01*
X21698793Y34983829D01*
X21696110Y34985268D01*
X21644981Y35000900D01*
X21593845Y35017121D01*
X21590916Y35017429D01*
X21587900Y35018351D01*
X21475323Y35029787D01*
X21445840Y35027000D01*
X16567181Y35027000D01*
X16466520Y35094259D01*
X16334214Y35149062D01*
X16193759Y35177000D01*
X16050553Y35177000D01*
X15910098Y35149062D01*
X15777792Y35094259D01*
X15658720Y35014698D01*
X15557458Y34913436D01*
X15477897Y34794364D01*
X15423094Y34662058D01*
X15395156Y34521603D01*
X15395156Y34378397D01*
X15423094Y34237942D01*
X15469049Y34126996D01*
X9395025Y34126996D01*
X9294364Y34194255D01*
X9162058Y34249058D01*
X9021603Y34276996D01*
X8878397Y34276996D01*
X8737942Y34249058D01*
X8605636Y34194255D01*
X8486564Y34114694D01*
X8385302Y34013432D01*
X8305741Y33894360D01*
X8250938Y33762054D01*
X8223000Y33621599D01*
X8223000Y33478393D01*
X8250938Y33337938D01*
X8305741Y33205632D01*
X8385302Y33086560D01*
X8486564Y32985298D01*
X8605636Y32905737D01*
X8737942Y32850934D01*
X8878397Y32822996D01*
X9021603Y32822996D01*
X9162058Y32850934D01*
X9294364Y32905737D01*
X9395025Y32972996D01*
X21144353Y32972996D01*
X34210670Y19906679D01*
X34234288Y19787942D01*
X34289091Y19655636D01*
X34368652Y19536564D01*
X34469914Y19435302D01*
X34588986Y19355741D01*
X34721292Y19300938D01*
X34861747Y19273000D01*
X35004953Y19273000D01*
X35145408Y19300938D01*
X35277714Y19355741D01*
X35396786Y19435302D01*
X35498048Y19536564D01*
X35577609Y19655636D01*
X35632412Y19787942D01*
X35660350Y19928397D01*
X35660350Y20071603D01*
X35632412Y20212058D01*
X35577609Y20344364D01*
X35498048Y20463436D01*
X35396786Y20564698D01*
X35277714Y20644259D01*
X35145408Y20699062D01*
X35026672Y20722680D01*
X32691260Y23058092D01*
X32734832Y23087206D01*
X32836094Y23188468D01*
X32915655Y23307540D01*
X32970458Y23439846D01*
X32998396Y23580301D01*
X32998396Y23723507D01*
X32970458Y23863962D01*
X32915655Y23996268D01*
X32836094Y24115340D01*
X32734832Y24216602D01*
X32615760Y24296163D01*
X32483454Y24350966D01*
X32364717Y24374584D01*
X28648639Y28090662D01*
X28756713Y28045896D01*
X29264244Y27944942D01*
X29781718Y27944942D01*
X30289249Y28045896D01*
X30767332Y28243925D01*
X31197596Y28531418D01*
X31563505Y28897327D01*
X31850998Y29327591D01*
X32049027Y29805674D01*
X32149981Y30313205D01*
X32149981Y30741368D01*
X37444480Y24036819D01*
X41400132Y16306035D01*
X42037676Y14067581D01*
X41619890Y14240634D01*
X41112359Y14341588D01*
X40594885Y14341588D01*
X40087354Y14240634D01*
X39609271Y14042605D01*
X39179007Y13755112D01*
X38813098Y13389203D01*
X38525605Y12958939D01*
X38327576Y12480856D01*
X38226622Y11973325D01*
X38226622Y11455851D01*
X38327576Y10948320D01*
X38525605Y10470237D01*
X38813098Y10039973D01*
X39179007Y9674064D01*
X39609271Y9386571D01*
X40087354Y9188542D01*
X40594885Y9087588D01*
X41112359Y9087588D01*
X41619890Y9188542D01*
X42097973Y9386571D01*
X42528237Y9674064D01*
X42894146Y10039973D01*
X43097931Y10344960D01*
X43780622Y7947994D01*
X44415663Y2053334D01*
X31432216Y1599943D01*
X31046133Y5333050D01*
X31038529Y5370407D01*
X31032565Y5408025D01*
X31030750Y5414795D01*
X29423160Y11247448D01*
X29406865Y11289878D01*
X29391131Y11332620D01*
X29388035Y11338909D01*
X26678160Y16748231D01*
X26653903Y16786736D01*
X26630197Y16825559D01*
X26625939Y16831127D01*
X25834114Y17851603D01*
X34790948Y17851603D01*
X34790948Y17708397D01*
X34818886Y17567942D01*
X34873689Y17435636D01*
X34953250Y17316564D01*
X35054512Y17215302D01*
X35173584Y17135741D01*
X35305890Y17080938D01*
X35446345Y17053000D01*
X35589551Y17053000D01*
X35730006Y17080938D01*
X35862312Y17135741D01*
X35981384Y17215302D01*
X36082646Y17316564D01*
X36162207Y17435636D01*
X36217010Y17567942D01*
X36244948Y17708397D01*
X36244948Y17851603D01*
X36217010Y17992058D01*
X36162207Y18124364D01*
X36082646Y18243436D01*
X35981384Y18344698D01*
X35862312Y18424259D01*
X35730006Y18479062D01*
X35589551Y18507000D01*
X35446345Y18507000D01*
X35305890Y18479062D01*
X35173584Y18424259D01*
X35054512Y18344698D01*
X34953250Y18243436D01*
X34873689Y18124364D01*
X34818886Y17992058D01*
X34790948Y17851603D01*
X25834114Y17851603D01*
X22916997Y21611079D01*
X22885755Y21644105D01*
X22854928Y21677619D01*
X22849670Y21682253D01*
X18282933Y25650767D01*
X18245839Y25677119D01*
X18209121Y25703983D01*
X18203063Y25707508D01*
X12952477Y28713425D01*
X12910992Y28732061D01*
X12869734Y28751292D01*
X12863107Y28753573D01*
X7128665Y30682399D01*
X7084363Y30692620D01*
X7040143Y30703473D01*
X7033199Y30704423D01*
X1033325Y31482689D01*
X1033314Y31482689D01*
X888597Y31501461D01*
X796919Y31532298D01*
X712977Y31580354D01*
X639966Y31643800D01*
X580676Y31720211D01*
X537352Y31806694D01*
X510836Y31902900D01*
X502000Y32005869D01*
X502000Y43964084D01*
X513846Y44084896D01*
X541802Y44177492D01*
X587210Y44262892D01*
X648342Y44337847D01*
X722867Y44399499D01*
X807948Y44445503D01*
X900347Y44474105D01*
X1003904Y44484990D01*
X8970084Y43520653D01*
X8970084Y43520653D01*
G37*
X8970084Y43520653D02*
X8607066Y43278092D01*
X8241157Y42912183D01*
X7953664Y42481919D01*
X7755635Y42003836D01*
X7654681Y41496305D01*
X7654681Y40978831D01*
X7755635Y40471300D01*
X7953664Y39993217D01*
X8241157Y39562953D01*
X8607066Y39197044D01*
X9037330Y38909551D01*
X9515413Y38711522D01*
X10022944Y38610568D01*
X10540418Y38610568D01*
X11047949Y38711522D01*
X11526032Y38909551D01*
X11956296Y39197044D01*
X12322205Y39562953D01*
X12609698Y39993217D01*
X12807727Y40471300D01*
X12908681Y40978831D01*
X12908681Y41496305D01*
X12807727Y42003836D01*
X12616748Y42464898D01*
X17886534Y40742234D01*
X25459429Y36492125D01*
X29314939Y33198942D01*
X29264244Y33198942D01*
X28756713Y33097988D01*
X28278630Y32899959D01*
X27848366Y32612466D01*
X27482457Y32246557D01*
X27194964Y31816293D01*
X26996935Y31338210D01*
X26895981Y30830679D01*
X26895981Y30313205D01*
X26996935Y29805674D01*
X27041701Y29697599D01*
X21903560Y34835740D01*
X21887545Y34855659D01*
X21863283Y34876017D01*
X21861172Y34878128D01*
X21841950Y34893917D01*
X21800863Y34928393D01*
X21798190Y34929862D01*
X21795835Y34931797D01*
X21748680Y34957081D01*
X21701704Y34982906D01*
X21698793Y34983829D01*
X21696110Y34985268D01*
X21644981Y35000900D01*
X21593845Y35017121D01*
X21590916Y35017429D01*
X21587900Y35018351D01*
X21475323Y35029787D01*
X21445840Y35027000D01*
X16567181Y35027000D01*
X16466520Y35094259D01*
X16334214Y35149062D01*
X16193759Y35177000D01*
X16050553Y35177000D01*
X15910098Y35149062D01*
X15777792Y35094259D01*
X15658720Y35014698D01*
X15557458Y34913436D01*
X15477897Y34794364D01*
X15423094Y34662058D01*
X15395156Y34521603D01*
X15395156Y34378397D01*
X15423094Y34237942D01*
X15469049Y34126996D01*
X9395025Y34126996D01*
X9294364Y34194255D01*
X9162058Y34249058D01*
X9021603Y34276996D01*
X8878397Y34276996D01*
X8737942Y34249058D01*
X8605636Y34194255D01*
X8486564Y34114694D01*
X8385302Y34013432D01*
X8305741Y33894360D01*
X8250938Y33762054D01*
X8223000Y33621599D01*
X8223000Y33478393D01*
X8250938Y33337938D01*
X8305741Y33205632D01*
X8385302Y33086560D01*
X8486564Y32985298D01*
X8605636Y32905737D01*
X8737942Y32850934D01*
X8878397Y32822996D01*
X9021603Y32822996D01*
X9162058Y32850934D01*
X9294364Y32905737D01*
X9395025Y32972996D01*
X21144353Y32972996D01*
X34210670Y19906679D01*
X34234288Y19787942D01*
X34289091Y19655636D01*
X34368652Y19536564D01*
X34469914Y19435302D01*
X34588986Y19355741D01*
X34721292Y19300938D01*
X34861747Y19273000D01*
X35004953Y19273000D01*
X35145408Y19300938D01*
X35277714Y19355741D01*
X35396786Y19435302D01*
X35498048Y19536564D01*
X35577609Y19655636D01*
X35632412Y19787942D01*
X35660350Y19928397D01*
X35660350Y20071603D01*
X35632412Y20212058D01*
X35577609Y20344364D01*
X35498048Y20463436D01*
X35396786Y20564698D01*
X35277714Y20644259D01*
X35145408Y20699062D01*
X35026672Y20722680D01*
X32691260Y23058092D01*
X32734832Y23087206D01*
X32836094Y23188468D01*
X32915655Y23307540D01*
X32970458Y23439846D01*
X32998396Y23580301D01*
X32998396Y23723507D01*
X32970458Y23863962D01*
X32915655Y23996268D01*
X32836094Y24115340D01*
X32734832Y24216602D01*
X32615760Y24296163D01*
X32483454Y24350966D01*
X32364717Y24374584D01*
X28648639Y28090662D01*
X28756713Y28045896D01*
X29264244Y27944942D01*
X29781718Y27944942D01*
X30289249Y28045896D01*
X30767332Y28243925D01*
X31197596Y28531418D01*
X31563505Y28897327D01*
X31850998Y29327591D01*
X32049027Y29805674D01*
X32149981Y30313205D01*
X32149981Y30741368D01*
X37444480Y24036819D01*
X41400132Y16306035D01*
X42037676Y14067581D01*
X41619890Y14240634D01*
X41112359Y14341588D01*
X40594885Y14341588D01*
X40087354Y14240634D01*
X39609271Y14042605D01*
X39179007Y13755112D01*
X38813098Y13389203D01*
X38525605Y12958939D01*
X38327576Y12480856D01*
X38226622Y11973325D01*
X38226622Y11455851D01*
X38327576Y10948320D01*
X38525605Y10470237D01*
X38813098Y10039973D01*
X39179007Y9674064D01*
X39609271Y9386571D01*
X40087354Y9188542D01*
X40594885Y9087588D01*
X41112359Y9087588D01*
X41619890Y9188542D01*
X42097973Y9386571D01*
X42528237Y9674064D01*
X42894146Y10039973D01*
X43097931Y10344960D01*
X43780622Y7947994D01*
X44415663Y2053334D01*
X31432216Y1599943D01*
X31046133Y5333050D01*
X31038529Y5370407D01*
X31032565Y5408025D01*
X31030750Y5414795D01*
X29423160Y11247448D01*
X29406865Y11289878D01*
X29391131Y11332620D01*
X29388035Y11338909D01*
X26678160Y16748231D01*
X26653903Y16786736D01*
X26630197Y16825559D01*
X26625939Y16831127D01*
X25834114Y17851603D01*
X34790948Y17851603D01*
X34790948Y17708397D01*
X34818886Y17567942D01*
X34873689Y17435636D01*
X34953250Y17316564D01*
X35054512Y17215302D01*
X35173584Y17135741D01*
X35305890Y17080938D01*
X35446345Y17053000D01*
X35589551Y17053000D01*
X35730006Y17080938D01*
X35862312Y17135741D01*
X35981384Y17215302D01*
X36082646Y17316564D01*
X36162207Y17435636D01*
X36217010Y17567942D01*
X36244948Y17708397D01*
X36244948Y17851603D01*
X36217010Y17992058D01*
X36162207Y18124364D01*
X36082646Y18243436D01*
X35981384Y18344698D01*
X35862312Y18424259D01*
X35730006Y18479062D01*
X35589551Y18507000D01*
X35446345Y18507000D01*
X35305890Y18479062D01*
X35173584Y18424259D01*
X35054512Y18344698D01*
X34953250Y18243436D01*
X34873689Y18124364D01*
X34818886Y17992058D01*
X34790948Y17851603D01*
X25834114Y17851603D01*
X22916997Y21611079D01*
X22885755Y21644105D01*
X22854928Y21677619D01*
X22849670Y21682253D01*
X18282933Y25650767D01*
X18245839Y25677119D01*
X18209121Y25703983D01*
X18203063Y25707508D01*
X12952477Y28713425D01*
X12910992Y28732061D01*
X12869734Y28751292D01*
X12863107Y28753573D01*
X7128665Y30682399D01*
X7084363Y30692620D01*
X7040143Y30703473D01*
X7033199Y30704423D01*
X1033325Y31482689D01*
X1033314Y31482689D01*
X888597Y31501461D01*
X796919Y31532298D01*
X712977Y31580354D01*
X639966Y31643800D01*
X580676Y31720211D01*
X537352Y31806694D01*
X510836Y31902900D01*
X502000Y32005869D01*
X502000Y43964084D01*
X513846Y44084896D01*
X541802Y44177492D01*
X587210Y44262892D01*
X648342Y44337847D01*
X722867Y44399499D01*
X807948Y44445503D01*
X900347Y44474105D01*
X1003904Y44484990D01*
X8970084Y43520653D01*
M02*
