G04 #@! TF.GenerationSoftware,KiCad,Pcbnew,(2018-01-25 revision 89a5a84af)-makepkg*
G04 #@! TF.CreationDate,2018-02-28T21:11:33+00:00*
G04 #@! TF.ProjectId,WolfDrive_encoder_renishaw_adapter,576F6C6644726976655F656E636F6465,rev?*
G04 #@! TF.SameCoordinates,Original*
G04 #@! TF.FileFunction,Paste,Top*
G04 #@! TF.FilePolarity,Positive*
%FSLAX46Y46*%
G04 Gerber Fmt 4.6, Leading zero omitted, Abs format (unit mm)*
G04 Created by KiCad (PCBNEW (2018-01-25 revision 89a5a84af)-makepkg) date Wed Feb 28 21:11:33 2018*
%MOMM*%
%LPD*%
G01*
G04 APERTURE LIST*
%ADD10C,0.600000*%
%ADD11C,0.100000*%
%ADD12C,1.200000*%
%ADD13R,2.000000X0.600000*%
%ADD14R,4.200000X0.600000*%
%ADD15C,0.750000*%
%ADD16C,0.650000*%
%ADD17C,1.800000*%
%ADD18C,1.000000*%
%ADD19R,0.700000X0.400000*%
%ADD20R,0.200000X0.500000*%
%ADD21C,0.400000*%
G04 APERTURE END LIST*
D10*
X33310124Y6454272D03*
D11*
G36*
X33037354Y5669274D02*
X32983260Y7218330D01*
X33582894Y7239270D01*
X33636988Y5690214D01*
X33037354Y5669274D01*
X33037354Y5669274D01*
G37*
D10*
X34309514Y6489171D03*
D11*
G36*
X34036744Y5704173D02*
X33982650Y7253229D01*
X34582284Y7274169D01*
X34636378Y5725113D01*
X34036744Y5704173D01*
X34036744Y5704173D01*
G37*
D10*
X35308905Y6524071D03*
D11*
G36*
X35036135Y5739073D02*
X34982041Y7288129D01*
X35581675Y7309069D01*
X35635769Y5760013D01*
X35036135Y5739073D01*
X35036135Y5739073D01*
G37*
D10*
X36308296Y6558970D03*
D11*
G36*
X36035526Y5773972D02*
X35981432Y7323028D01*
X36581066Y7343968D01*
X36635160Y5794912D01*
X36035526Y5773972D01*
X36035526Y5773972D01*
G37*
D10*
X37307687Y6593870D03*
D11*
G36*
X37034917Y5808872D02*
X36980823Y7357928D01*
X37580457Y7378868D01*
X37634551Y5829812D01*
X37034917Y5808872D01*
X37034917Y5808872D01*
G37*
D10*
X38307078Y6628769D03*
D11*
G36*
X38034308Y5843771D02*
X37980214Y7392827D01*
X38579848Y7413767D01*
X38633942Y5864711D01*
X38034308Y5843771D01*
X38034308Y5843771D01*
G37*
D10*
X39306468Y6663669D03*
D11*
G36*
X39033698Y5878671D02*
X38979604Y7427727D01*
X39579238Y7448667D01*
X39633332Y5899611D01*
X39033698Y5878671D01*
X39033698Y5878671D01*
G37*
D10*
X40305859Y6698568D03*
D11*
G36*
X40033089Y5913570D02*
X39978995Y7462626D01*
X40578629Y7483566D01*
X40632723Y5934510D01*
X40033089Y5913570D01*
X40033089Y5913570D01*
G37*
D10*
X41305250Y6733468D03*
D11*
G36*
X41032480Y5948470D02*
X40978386Y7497526D01*
X41578020Y7518466D01*
X41632114Y5969410D01*
X41032480Y5948470D01*
X41032480Y5948470D01*
G37*
D10*
X42304641Y6768367D03*
D11*
G36*
X42031871Y5983369D02*
X41977777Y7532425D01*
X42577411Y7553365D01*
X42631505Y6004309D01*
X42031871Y5983369D01*
X42031871Y5983369D01*
G37*
D12*
X32146151Y2536263D03*
D11*
G36*
X31577926Y1615872D02*
X31515107Y3414775D01*
X32714376Y3456654D01*
X32777195Y1657751D01*
X31577926Y1615872D01*
X31577926Y1615872D01*
G37*
D12*
X43739085Y2941097D03*
D11*
G36*
X43170860Y2020706D02*
X43108041Y3819609D01*
X44307310Y3861488D01*
X44370129Y2062585D01*
X43170860Y2020706D01*
X43170860Y2020706D01*
G37*
D10*
X20301478Y30842027D03*
D11*
G36*
X19480308Y30969719D02*
X19780308Y31489335D01*
X21122648Y30714335D01*
X20822648Y30194719D01*
X19480308Y30969719D01*
X19480308Y30969719D01*
G37*
D10*
X19666478Y29742175D03*
D11*
G36*
X18845308Y29869867D02*
X19145308Y30389483D01*
X20487648Y29614483D01*
X20187648Y29094867D01*
X18845308Y29869867D01*
X18845308Y29869867D01*
G37*
D10*
X19031478Y28642323D03*
D11*
G36*
X18210308Y28770015D02*
X18510308Y29289631D01*
X19852648Y28514631D01*
X19552648Y27995015D01*
X18210308Y28770015D01*
X18210308Y28770015D01*
G37*
D10*
X18396478Y27542471D03*
D11*
G36*
X17575308Y27670163D02*
X17875308Y28189779D01*
X19217648Y27414779D01*
X18917648Y26895163D01*
X17575308Y27670163D01*
X17575308Y27670163D01*
G37*
D10*
X13719940Y30242471D03*
D11*
G36*
X12898770Y30370163D02*
X13198770Y30889779D01*
X14541110Y30114779D01*
X14241110Y29595163D01*
X12898770Y30370163D01*
X12898770Y30370163D01*
G37*
D10*
X14354940Y31342323D03*
D11*
G36*
X13533770Y31470015D02*
X13833770Y31989631D01*
X15176110Y31214631D01*
X14876110Y30695015D01*
X13533770Y31470015D01*
X13533770Y31470015D01*
G37*
D10*
X14989940Y32442175D03*
D11*
G36*
X14168770Y32569867D02*
X14468770Y33089483D01*
X15811110Y32314483D01*
X15511110Y31794867D01*
X14168770Y32569867D01*
X14168770Y32569867D01*
G37*
D10*
X15624940Y33542027D03*
D11*
G36*
X14803770Y33669719D02*
X15103770Y34189335D01*
X16446110Y33414335D01*
X16146110Y32894719D01*
X14803770Y33669719D01*
X14803770Y33669719D01*
G37*
D13*
X6000000Y39500000D03*
D14*
X3900000Y33200000D03*
X3900000Y40800000D03*
D13*
X6000000Y38500000D03*
X6000000Y37500000D03*
X6000000Y36500000D03*
X6000000Y35500000D03*
X6000000Y34500000D03*
D15*
X36649519Y19875000D03*
D11*
G36*
X36490609Y19350240D02*
X36115609Y19999760D01*
X36808429Y20399760D01*
X37183429Y19750240D01*
X36490609Y19350240D01*
X36490609Y19350240D01*
G37*
D15*
X35350481Y19125000D03*
D11*
G36*
X35191571Y18600240D02*
X34816571Y19249760D01*
X35509391Y19649760D01*
X35884391Y19000240D01*
X35191571Y18600240D01*
X35191571Y18600240D01*
G37*
D15*
X34752334Y25950670D03*
D11*
G36*
X35277094Y25791760D02*
X34627574Y25416760D01*
X34227574Y26109580D01*
X34877094Y26484580D01*
X35277094Y25791760D01*
X35277094Y25791760D01*
G37*
D15*
X34002334Y27249708D03*
D11*
G36*
X34527094Y27090798D02*
X33877574Y26715798D01*
X33477574Y27408618D01*
X34127094Y27783618D01*
X34527094Y27090798D01*
X34527094Y27090798D01*
G37*
D15*
X13899519Y34625000D03*
D11*
G36*
X13365609Y34500240D02*
X13740609Y35149760D01*
X14433429Y34749760D01*
X14058429Y34100240D01*
X13365609Y34500240D01*
X13365609Y34500240D01*
G37*
D15*
X12600481Y35375000D03*
D11*
G36*
X12066571Y35250240D02*
X12441571Y35899760D01*
X13134391Y35499760D01*
X12759391Y34850240D01*
X12066571Y35250240D01*
X12066571Y35250240D01*
G37*
D10*
X21274080Y32618109D03*
D11*
G36*
X22095250Y32490417D02*
X21795250Y31970801D01*
X20452910Y32745801D01*
X20752910Y33265417D01*
X22095250Y32490417D01*
X22095250Y32490417D01*
G37*
D10*
X21909080Y33717961D03*
D11*
G36*
X22730250Y33590269D02*
X22430250Y33070653D01*
X21087910Y33845653D01*
X21387910Y34365269D01*
X22730250Y33590269D01*
X22730250Y33590269D01*
G37*
D10*
X22544080Y34817813D03*
D11*
G36*
X23365250Y34690121D02*
X23065250Y34170505D01*
X21722910Y34945505D01*
X22022910Y35465121D01*
X23365250Y34690121D01*
X23365250Y34690121D01*
G37*
D10*
X23179080Y35917665D03*
D11*
G36*
X24000250Y35789973D02*
X23700250Y35270357D01*
X22357910Y36045357D01*
X22657910Y36564973D01*
X24000250Y35789973D01*
X24000250Y35789973D01*
G37*
D10*
X18502542Y38617665D03*
D11*
G36*
X19323712Y38489973D02*
X19023712Y37970357D01*
X17681372Y38745357D01*
X17981372Y39264973D01*
X19323712Y38489973D01*
X19323712Y38489973D01*
G37*
D10*
X17867542Y37517813D03*
D11*
G36*
X18688712Y37390121D02*
X18388712Y36870505D01*
X17046372Y37645505D01*
X17346372Y38165121D01*
X18688712Y37390121D01*
X18688712Y37390121D01*
G37*
D10*
X17232542Y36417961D03*
D11*
G36*
X18053712Y36290269D02*
X17753712Y35770653D01*
X16411372Y36545653D01*
X16711372Y37065269D01*
X18053712Y36290269D01*
X18053712Y36290269D01*
G37*
D10*
X16597542Y35318109D03*
D11*
G36*
X17418712Y35190417D02*
X17118712Y34670801D01*
X15776372Y35445801D01*
X16076372Y35965417D01*
X17418712Y35190417D01*
X17418712Y35190417D01*
G37*
D16*
X34432776Y21050035D03*
D11*
G36*
X34979234Y20753542D02*
X34416318Y20428542D01*
X33886318Y21346528D01*
X34449234Y21671528D01*
X34979234Y20753542D01*
X34979234Y20753542D01*
G37*
D16*
X35255499Y21525036D03*
D11*
G36*
X35801957Y21228543D02*
X35239041Y20903543D01*
X34709041Y21821529D01*
X35271957Y22146529D01*
X35801957Y21228543D01*
X35801957Y21228543D01*
G37*
D16*
X36078225Y22000036D03*
D11*
G36*
X36624683Y21703543D02*
X36061767Y21378543D01*
X35531767Y22296529D01*
X36094683Y22621529D01*
X36624683Y21703543D01*
X36624683Y21703543D01*
G37*
D16*
X34978224Y23905291D03*
D11*
G36*
X35524682Y23608798D02*
X34961766Y23283798D01*
X34431766Y24201784D01*
X34994682Y24526784D01*
X35524682Y23608798D01*
X35524682Y23608798D01*
G37*
D16*
X33332775Y22955290D03*
D11*
G36*
X33879233Y22658797D02*
X33316317Y22333797D01*
X32786317Y23251783D01*
X33349233Y23576783D01*
X33879233Y22658797D01*
X33879233Y22658797D01*
G37*
D17*
X35517948Y16000000D03*
D11*
G36*
X34885416Y14595577D02*
X33985416Y16154423D01*
X36150480Y17404423D01*
X37050480Y15845577D01*
X34885416Y14595577D01*
X34885416Y14595577D01*
G37*
D17*
X38982052Y18000000D03*
D11*
G36*
X38349520Y16595577D02*
X37449520Y18154423D01*
X39614584Y19404423D01*
X40514584Y17845577D01*
X38349520Y16595577D01*
X38349520Y16595577D01*
G37*
D18*
X31364598Y24452539D03*
D11*
G36*
X31244085Y23661273D02*
X30619085Y24743805D01*
X31485111Y25243805D01*
X32110111Y24161273D01*
X31244085Y23661273D01*
X31244085Y23661273D01*
G37*
D18*
X33096648Y25452539D03*
D11*
G36*
X32976135Y24661273D02*
X32351135Y25743805D01*
X33217161Y26243805D01*
X33842161Y25161273D01*
X32976135Y24661273D01*
X32976135Y24661273D01*
G37*
D15*
X13350481Y36875000D03*
D11*
G36*
X12816571Y36750240D02*
X13191571Y37399760D01*
X13884391Y36999760D01*
X13509391Y36350240D01*
X12816571Y36750240D01*
X12816571Y36750240D01*
G37*
D15*
X14649519Y36125000D03*
D11*
G36*
X14115609Y36000240D02*
X14490609Y36649760D01*
X15183429Y36249760D01*
X14808429Y35600240D01*
X14115609Y36000240D01*
X14115609Y36000240D01*
G37*
D18*
X30133975Y26500000D03*
D11*
G36*
X30013462Y25708734D02*
X29388462Y26791266D01*
X30254488Y27291266D01*
X30879488Y26208734D01*
X30013462Y25708734D01*
X30013462Y25708734D01*
G37*
D18*
X31866025Y27500000D03*
D11*
G36*
X31745512Y26708734D02*
X31120512Y27791266D01*
X31986538Y28291266D01*
X32611538Y27208734D01*
X31745512Y26708734D01*
X31745512Y26708734D01*
G37*
D19*
X30350000Y16000000D03*
X31050000Y16000000D03*
X31750000Y16000000D03*
X32450000Y16000000D03*
D20*
X32400000Y15375000D03*
X32000000Y15375000D03*
X31600000Y15375000D03*
X32800000Y15375000D03*
X30400000Y15375000D03*
X30000000Y15375000D03*
X30800000Y15375000D03*
X31200000Y15375000D03*
X30000000Y16625000D03*
X30400000Y16625000D03*
X31200000Y16625000D03*
X30800000Y16625000D03*
X31600000Y16625000D03*
X32400000Y16625000D03*
X32800000Y16625000D03*
X32000000Y16625000D03*
D21*
X33643101Y11270891D03*
D11*
G36*
X33560095Y11621761D02*
X33998907Y11212562D01*
X33726107Y10920021D01*
X33287295Y11329220D01*
X33560095Y11621761D01*
X33560095Y11621761D01*
G37*
D21*
X34256899Y11929109D03*
D11*
G36*
X34173893Y12279979D02*
X34612705Y11870780D01*
X34339905Y11578239D01*
X33901093Y11987438D01*
X34173893Y12279979D01*
X34173893Y12279979D01*
G37*
D21*
X35468198Y13168198D03*
D11*
G36*
X35397487Y13521751D02*
X35821751Y13097487D01*
X35538909Y12814645D01*
X35114645Y13238909D01*
X35397487Y13521751D01*
X35397487Y13521751D01*
G37*
D21*
X34831802Y12531802D03*
D11*
G36*
X34761091Y12885355D02*
X35185355Y12461091D01*
X34902513Y12178249D01*
X34478249Y12602513D01*
X34761091Y12885355D01*
X34761091Y12885355D01*
G37*
M02*
