M48
;DRILL file {KiCad (2018-01-25 revision 89a5a84af)-makepkg} date Wed Feb 28 21:09:03 2018
;FORMAT={-:-/ absolute / metric / decimal}
FMAT,2
METRIC,TZ
T1C0.300
T2C0.400
T3C2.200
%
G90
G05
M71
T1
X1.Y43.
X1.Y32.
X3.Y43.
X3.Y32.
X5.Y43.
X5.Y32.
X7.Y43.
X7.Y32.
X8.95Y33.55
X9.Y37.
X9.Y32.
X11.Y37.
X11.Y32.
X11.Y30.
X15.Y41.
X15.Y28.
X16.122Y34.45
X17.Y41.
X17.Y39.
X17.Y32.
X17.Y30.
X17.Y28.
X19.Y36.
X19.Y32.
X19.Y26.
X21.Y38.
X21.Y36.
X21.Y24.
X22.Y30.25
X22.75Y28.75
X23.Y24.
X23.Y22.
X25.Y36.
X25.Y34.
X25.Y22.
X25.Y20.
X25.5Y31.5
X27.Y34.
X27.Y32.
X27.Y26.
X27.Y20.
X27.Y18.
X29.Y24.
X29.Y18.
X29.Y16.
X29.Y14.
X30.Y11.25
X31.Y22.
X31.Y8.
X31.Y6.
X32.271Y23.652
X33.Y28.
X33.Y20.
X34.933Y20.
X35.Y14.
X35.Y4.
X35.Y2.
X35.518Y17.78
X37.Y24.
X37.Y14.
X37.Y4.
X37.Y2.
X39.Y20.
X39.Y16.
X39.Y14.
X39.Y4.
X39.Y2.
X41.Y16.
X41.Y4.
X41.Y2.
X43.Y8.
T2
X27.873Y30.572
X28.356Y31.739
X28.356Y29.405
X29.523Y32.222
X29.523Y28.922
X30.69Y31.739
X30.69Y29.405
X31.173Y30.572
T3
X10.282Y41.238
X29.523Y30.572
X40.854Y11.715
T0
M30
