G04 #@! TF.GenerationSoftware,KiCad,Pcbnew,(2018-01-25 revision 89a5a84af)-makepkg*
G04 #@! TF.CreationDate,2018-02-28T21:11:33+00:00*
G04 #@! TF.ProjectId,WolfDrive_encoder_renishaw_adapter,576F6C6644726976655F656E636F6465,rev?*
G04 #@! TF.SameCoordinates,Original*
G04 #@! TF.FileFunction,Soldermask,Top*
G04 #@! TF.FilePolarity,Negative*
%FSLAX46Y46*%
G04 Gerber Fmt 4.6, Leading zero omitted, Abs format (unit mm)*
G04 Created by KiCad (PCBNEW (2018-01-25 revision 89a5a84af)-makepkg) date Wed Feb 28 21:11:33 2018*
%MOMM*%
%LPD*%
G01*
G04 APERTURE LIST*
%ADD10C,1.000000*%
%ADD11C,0.100000*%
%ADD12C,1.600000*%
%ADD13R,2.400000X1.000000*%
%ADD14R,4.600000X1.000000*%
%ADD15C,1.150000*%
%ADD16C,1.050000*%
%ADD17C,2.200000*%
%ADD18C,1.400000*%
%ADD19R,1.100000X0.800000*%
%ADD20R,0.600000X0.900000*%
%ADD21C,4.800000*%
%ADD22C,0.800000*%
G04 APERTURE END LIST*
D10*
X33310124Y6454272D03*
D11*
G36*
X32844456Y5462416D02*
X32776402Y7411228D01*
X33775792Y7446128D01*
X33843846Y5497316D01*
X32844456Y5462416D01*
X32844456Y5462416D01*
G37*
D10*
X34309514Y6489171D03*
D11*
G36*
X33843846Y5497315D02*
X33775792Y7446127D01*
X34775182Y7481027D01*
X34843236Y5532215D01*
X33843846Y5497315D01*
X33843846Y5497315D01*
G37*
D10*
X35308905Y6524071D03*
D11*
G36*
X34843237Y5532215D02*
X34775183Y7481027D01*
X35774573Y7515927D01*
X35842627Y5567115D01*
X34843237Y5532215D01*
X34843237Y5532215D01*
G37*
D10*
X36308296Y6558970D03*
D11*
G36*
X35842628Y5567114D02*
X35774574Y7515926D01*
X36773964Y7550826D01*
X36842018Y5602014D01*
X35842628Y5567114D01*
X35842628Y5567114D01*
G37*
D10*
X37307687Y6593870D03*
D11*
G36*
X36842019Y5602014D02*
X36773965Y7550826D01*
X37773355Y7585726D01*
X37841409Y5636914D01*
X36842019Y5602014D01*
X36842019Y5602014D01*
G37*
D10*
X38307078Y6628769D03*
D11*
G36*
X37841410Y5636913D02*
X37773356Y7585725D01*
X38772746Y7620625D01*
X38840800Y5671813D01*
X37841410Y5636913D01*
X37841410Y5636913D01*
G37*
D10*
X39306468Y6663669D03*
D11*
G36*
X38840800Y5671813D02*
X38772746Y7620625D01*
X39772136Y7655525D01*
X39840190Y5706713D01*
X38840800Y5671813D01*
X38840800Y5671813D01*
G37*
D10*
X40305859Y6698568D03*
D11*
G36*
X39840191Y5706712D02*
X39772137Y7655524D01*
X40771527Y7690424D01*
X40839581Y5741612D01*
X39840191Y5706712D01*
X39840191Y5706712D01*
G37*
D10*
X41305250Y6733468D03*
D11*
G36*
X40839582Y5741612D02*
X40771528Y7690424D01*
X41770918Y7725324D01*
X41838972Y5776512D01*
X40839582Y5741612D01*
X40839582Y5741612D01*
G37*
D10*
X42304641Y6768367D03*
D11*
G36*
X41838973Y5776511D02*
X41770919Y7725323D01*
X42770309Y7760223D01*
X42838363Y5811411D01*
X41838973Y5776511D01*
X41838973Y5776511D01*
G37*
D12*
X32146151Y2536263D03*
D11*
G36*
X31385028Y1409013D02*
X31308249Y3607673D01*
X32907274Y3663513D01*
X32984053Y1464853D01*
X31385028Y1409013D01*
X31385028Y1409013D01*
G37*
D12*
X43739085Y2941097D03*
D11*
G36*
X42977962Y1813847D02*
X42901183Y4012507D01*
X44500208Y4068347D01*
X44576987Y1869687D01*
X42977962Y1813847D01*
X42977962Y1813847D01*
G37*
D10*
X20301478Y30842027D03*
D11*
G36*
X19207103Y30896514D02*
X19707103Y31762540D01*
X21395853Y30787540D01*
X20895853Y29921514D01*
X19207103Y30896514D01*
X19207103Y30896514D01*
G37*
D10*
X19666478Y29742175D03*
D11*
G36*
X18572103Y29796662D02*
X19072103Y30662688D01*
X20760853Y29687688D01*
X20260853Y28821662D01*
X18572103Y29796662D01*
X18572103Y29796662D01*
G37*
D10*
X19031478Y28642323D03*
D11*
G36*
X17937103Y28696810D02*
X18437103Y29562836D01*
X20125853Y28587836D01*
X19625853Y27721810D01*
X17937103Y28696810D01*
X17937103Y28696810D01*
G37*
D10*
X18396478Y27542471D03*
D11*
G36*
X17302103Y27596958D02*
X17802103Y28462984D01*
X19490853Y27487984D01*
X18990853Y26621958D01*
X17302103Y27596958D01*
X17302103Y27596958D01*
G37*
D10*
X13719940Y30242471D03*
D11*
G36*
X12625565Y30296958D02*
X13125565Y31162984D01*
X14814315Y30187984D01*
X14314315Y29321958D01*
X12625565Y30296958D01*
X12625565Y30296958D01*
G37*
D10*
X14354940Y31342323D03*
D11*
G36*
X13260565Y31396810D02*
X13760565Y32262836D01*
X15449315Y31287836D01*
X14949315Y30421810D01*
X13260565Y31396810D01*
X13260565Y31396810D01*
G37*
D10*
X14989940Y32442175D03*
D11*
G36*
X13895565Y32496662D02*
X14395565Y33362688D01*
X16084315Y32387688D01*
X15584315Y31521662D01*
X13895565Y32496662D01*
X13895565Y32496662D01*
G37*
D10*
X15624940Y33542027D03*
D11*
G36*
X14530565Y33596514D02*
X15030565Y34462540D01*
X16719315Y33487540D01*
X16219315Y32621514D01*
X14530565Y33596514D01*
X14530565Y33596514D01*
G37*
D13*
X6000000Y39500000D03*
D14*
X3900000Y33200000D03*
X3900000Y40800000D03*
D13*
X6000000Y38500000D03*
X6000000Y37500000D03*
X6000000Y36500000D03*
X6000000Y35500000D03*
X6000000Y34500000D03*
D15*
X36649519Y19875000D03*
D11*
G36*
X36417404Y19077035D02*
X35842404Y20072965D01*
X36881634Y20672965D01*
X37456634Y19677035D01*
X36417404Y19077035D01*
X36417404Y19077035D01*
G37*
D15*
X35350481Y19125000D03*
D11*
G36*
X35118366Y18327035D02*
X34543366Y19322965D01*
X35582596Y19922965D01*
X36157596Y18927035D01*
X35118366Y18327035D01*
X35118366Y18327035D01*
G37*
D15*
X34752334Y25950670D03*
D11*
G36*
X35550299Y25718555D02*
X34554369Y25143555D01*
X33954369Y26182785D01*
X34950299Y26757785D01*
X35550299Y25718555D01*
X35550299Y25718555D01*
G37*
D15*
X34002334Y27249708D03*
D11*
G36*
X34800299Y27017593D02*
X33804369Y26442593D01*
X33204369Y27481823D01*
X34200299Y28056823D01*
X34800299Y27017593D01*
X34800299Y27017593D01*
G37*
D15*
X13899519Y34625000D03*
D11*
G36*
X13092404Y34427035D02*
X13667404Y35422965D01*
X14706634Y34822965D01*
X14131634Y33827035D01*
X13092404Y34427035D01*
X13092404Y34427035D01*
G37*
D15*
X12600481Y35375000D03*
D11*
G36*
X11793366Y35177035D02*
X12368366Y36172965D01*
X13407596Y35572965D01*
X12832596Y34577035D01*
X11793366Y35177035D01*
X11793366Y35177035D01*
G37*
D10*
X21274080Y32618109D03*
D11*
G36*
X22368455Y32563622D02*
X21868455Y31697596D01*
X20179705Y32672596D01*
X20679705Y33538622D01*
X22368455Y32563622D01*
X22368455Y32563622D01*
G37*
D10*
X21909080Y33717961D03*
D11*
G36*
X23003455Y33663474D02*
X22503455Y32797448D01*
X20814705Y33772448D01*
X21314705Y34638474D01*
X23003455Y33663474D01*
X23003455Y33663474D01*
G37*
D10*
X22544080Y34817813D03*
D11*
G36*
X23638455Y34763326D02*
X23138455Y33897300D01*
X21449705Y34872300D01*
X21949705Y35738326D01*
X23638455Y34763326D01*
X23638455Y34763326D01*
G37*
D10*
X23179080Y35917665D03*
D11*
G36*
X24273455Y35863178D02*
X23773455Y34997152D01*
X22084705Y35972152D01*
X22584705Y36838178D01*
X24273455Y35863178D01*
X24273455Y35863178D01*
G37*
D10*
X18502542Y38617665D03*
D11*
G36*
X19596917Y38563178D02*
X19096917Y37697152D01*
X17408167Y38672152D01*
X17908167Y39538178D01*
X19596917Y38563178D01*
X19596917Y38563178D01*
G37*
D10*
X17867542Y37517813D03*
D11*
G36*
X18961917Y37463326D02*
X18461917Y36597300D01*
X16773167Y37572300D01*
X17273167Y38438326D01*
X18961917Y37463326D01*
X18961917Y37463326D01*
G37*
D10*
X17232542Y36417961D03*
D11*
G36*
X18326917Y36363474D02*
X17826917Y35497448D01*
X16138167Y36472448D01*
X16638167Y37338474D01*
X18326917Y36363474D01*
X18326917Y36363474D01*
G37*
D10*
X16597542Y35318109D03*
D11*
G36*
X17691917Y35263622D02*
X17191917Y34397596D01*
X15503167Y35372596D01*
X16003167Y36238622D01*
X17691917Y35263622D01*
X17691917Y35263622D01*
G37*
D16*
X34432776Y21050035D03*
D11*
G36*
X35252439Y20680336D02*
X34343113Y20155336D01*
X33613113Y21419734D01*
X34522439Y21944734D01*
X35252439Y20680336D01*
X35252439Y20680336D01*
G37*
D16*
X35255499Y21525036D03*
D11*
G36*
X36075162Y21155337D02*
X35165836Y20630337D01*
X34435836Y21894735D01*
X35345162Y22419735D01*
X36075162Y21155337D01*
X36075162Y21155337D01*
G37*
D16*
X36078225Y22000036D03*
D11*
G36*
X36897888Y21630337D02*
X35988562Y21105337D01*
X35258562Y22369735D01*
X36167888Y22894735D01*
X36897888Y21630337D01*
X36897888Y21630337D01*
G37*
D16*
X34978224Y23905291D03*
D11*
G36*
X35797887Y23535592D02*
X34888561Y23010592D01*
X34158561Y24274990D01*
X35067887Y24799990D01*
X35797887Y23535592D01*
X35797887Y23535592D01*
G37*
D16*
X33332775Y22955290D03*
D11*
G36*
X34152438Y22585591D02*
X33243112Y22060591D01*
X32513112Y23324989D01*
X33422438Y23849989D01*
X34152438Y22585591D01*
X34152438Y22585591D01*
G37*
D17*
X35517948Y16000000D03*
D11*
G36*
X34812211Y14322372D02*
X33712211Y16227628D01*
X36223685Y17677628D01*
X37323685Y15772372D01*
X34812211Y14322372D01*
X34812211Y14322372D01*
G37*
D17*
X38982052Y18000000D03*
D11*
G36*
X38276315Y16322372D02*
X37176315Y18227628D01*
X39687789Y19677628D01*
X40787789Y17772372D01*
X38276315Y16322372D01*
X38276315Y16322372D01*
G37*
D18*
X31364598Y24452539D03*
D11*
G36*
X31170880Y23388068D02*
X30345880Y24817010D01*
X31558316Y25517010D01*
X32383316Y24088068D01*
X31170880Y23388068D01*
X31170880Y23388068D01*
G37*
D18*
X33096648Y25452539D03*
D11*
G36*
X32902930Y24388068D02*
X32077930Y25817010D01*
X33290366Y26517010D01*
X34115366Y25088068D01*
X32902930Y24388068D01*
X32902930Y24388068D01*
G37*
D15*
X13350481Y36875000D03*
D11*
G36*
X12543366Y36677035D02*
X13118366Y37672965D01*
X14157596Y37072965D01*
X13582596Y36077035D01*
X12543366Y36677035D01*
X12543366Y36677035D01*
G37*
D15*
X14649519Y36125000D03*
D11*
G36*
X13842404Y35927035D02*
X14417404Y36922965D01*
X15456634Y36322965D01*
X14881634Y35327035D01*
X13842404Y35927035D01*
X13842404Y35927035D01*
G37*
D18*
X30133975Y26500000D03*
D11*
G36*
X29940257Y25435529D02*
X29115257Y26864471D01*
X30327693Y27564471D01*
X31152693Y26135529D01*
X29940257Y25435529D01*
X29940257Y25435529D01*
G37*
D18*
X31866025Y27500000D03*
D11*
G36*
X31672307Y26435529D02*
X30847307Y27864471D01*
X32059743Y28564471D01*
X32884743Y27135529D01*
X31672307Y26435529D01*
X31672307Y26435529D01*
G37*
D19*
X30350000Y16000000D03*
X31050000Y16000000D03*
X31750000Y16000000D03*
X32450000Y16000000D03*
D20*
X32400000Y15375000D03*
X32000000Y15375000D03*
X31600000Y15375000D03*
X32800000Y15375000D03*
X30400000Y15375000D03*
X30000000Y15375000D03*
X30800000Y15375000D03*
X31200000Y15375000D03*
X30000000Y16625000D03*
X30400000Y16625000D03*
X31200000Y16625000D03*
X30800000Y16625000D03*
X31600000Y16625000D03*
X32400000Y16625000D03*
X32800000Y16625000D03*
X32000000Y16625000D03*
D21*
X29522981Y30571942D03*
D10*
X31172981Y30571942D03*
X30689707Y29405216D03*
X29522981Y28921942D03*
X28356255Y29405216D03*
X27872981Y30571942D03*
X28356255Y31738668D03*
X29522981Y32221942D03*
X30689707Y31738668D03*
D22*
X33643101Y11270891D03*
D11*
G36*
X33550223Y11904432D02*
X34281577Y11222433D01*
X33735979Y10637350D01*
X33004625Y11319349D01*
X33550223Y11904432D01*
X33550223Y11904432D01*
G37*
D22*
X34256899Y11929109D03*
D11*
G36*
X34164021Y12562650D02*
X34895375Y11880651D01*
X34349777Y11295568D01*
X33618423Y11977567D01*
X34164021Y12562650D01*
X34164021Y12562650D01*
G37*
D22*
X35468198Y13168198D03*
D11*
G36*
X35397487Y13804594D02*
X36104594Y13097487D01*
X35538909Y12531802D01*
X34831802Y13238909D01*
X35397487Y13804594D01*
X35397487Y13804594D01*
G37*
D22*
X34831802Y12531802D03*
D11*
G36*
X34761091Y13168198D02*
X35468198Y12461091D01*
X34902513Y11895406D01*
X34195406Y12602513D01*
X34761091Y13168198D01*
X34761091Y13168198D01*
G37*
D21*
X10281681Y41237568D03*
X40853622Y11714588D03*
M02*
